<?xml version="1.0" standalone="yes"?>
<svg xmlns="http://www.w3.org/2000/svg" width="640" height="640">
<path style="fill:#efefdf; stroke:none;" d="M0 0L0 640L640 640L640 0L0 0z"/>
<path style="fill:#2b591f; stroke:none;" d="M367 116C354.173 121.519 340.298 123.295 332.916 137C328.594 145.025 333.329 156.024 326.89 162.271C316.775 172.085 303.852 177.75 293.015 186.518C288.209 190.406 285.909 196.767 280.907 200.272C273.904 205.179 264.441 204.068 258.394 211.105C253.582 216.704 254.058 224.428 251.533 231C247.657 241.09 230.953 262.917 223 245L221 245C216.587 256.457 213.793 270.836 223.329 280.699C228.528 286.077 236.209 289.176 243 292C247.479 273.151 267.521 264.154 285 261.084C303.002 257.923 322.363 256.828 329 236C320.503 240.342 311.509 241.804 302 242C306.188 237.115 312.719 235.207 318 231.64C325.256 226.74 330.628 220.046 334 212C326.448 214.748 320.162 218.9 312 220C326.719 194.537 367.287 201.262 380 174C406.172 197.492 447.494 170.918 456 142C435.321 140.366 412.208 127.944 391.576 136.724C378.295 142.375 378.066 157.125 368.981 165.91C354.022 180.374 331.936 188.43 312 193C316.581 189.01 321.63 185.511 325.715 180.985C330.466 175.721 334.459 168.698 340.039 164.318C344.653 160.696 351.05 162.123 355.907 158.362C365.17 151.188 366.14 138.641 367.17 128C367.57 123.868 368.652 119.938 367 116z"/>
<path style="fill:#efefdf; stroke:none;" d="M388 168C401.32 161.665 417.189 157.638 432 157C428.301 155.448 423.983 156 420 156C408.078 156 395.755 157.892 388 168z"/>
<path style="fill:#2b591f; stroke:none;" d="M160 397C164.512 393.822 172.917 387.711 174.071 382C174.77 378.542 172.36 374.267 171.427 371C169.466 364.126 168.134 357.094 167.285 350C164.925 330.271 167.301 311.206 172.127 292C180.303 259.454 200.917 231.739 227 211.211C236.254 203.928 246.572 198.144 257 192.742C261.678 190.318 267.481 187.014 267.597 181C267.843 168.289 253.821 171.838 247 175.248C228.515 184.49 210.74 196.439 196.09 211.09C149.649 257.53 131.384 336.539 160 397z"/>
<path style="fill:#efefdf; stroke:none;" d="M310.667 193.333C310.222 193.778 311.278 193.722 311.333 193.667C311.778 193.222 310.722 193.278 310.667 193.333z"/>
<path style="fill:#2b591f; stroke:none;" d="M338 230L345 231C343.61 234.342 342.004 237.515 341 241C353.743 244.671 364.995 254.648 372.87 265C388.926 286.108 396.245 312.044 388.561 338C386.237 345.851 382.334 353.398 377.511 360C374.776 363.745 371.264 366.974 369 371C385.377 362.383 401.787 355.502 420 351.801C425.352 350.713 433.629 348.08 439 349.693C442.234 350.664 444.691 353.708 447 356.001C451.84 360.807 456.414 366.065 462 370C475.289 328.166 461.405 284.405 431 254C440.364 256.167 447.937 261.029 456 266C453.849 260.327 449.869 255.487 445.829 251C434.67 238.604 417.198 226.75 400 226L400 224C408.808 223.281 416.064 221.871 425 223C412.887 208.343 387.755 204.915 370 205.001C363.356 205.033 353.749 205.78 348.275 209.995C343.335 213.798 340.371 224.306 338 230z"/>
<path style="fill:#efefdf; stroke:none;" d="M264 233C269.133 232.958 274.698 232.688 278.443 228.657C281.156 225.737 282.151 221.841 285 219C275.381 215.551 267.137 225.095 264 233z"/>
<path style="fill:#2b591f; stroke:none;" d="M329 257C333.524 263.869 337.722 269.905 339.844 278C344.622 296.22 339.441 316.651 328.971 332C317.427 348.925 300.143 364.72 297 386C306.262 391.787 312.762 401.71 322 407C327.38 387.328 342.697 372.371 353.975 356C365.153 339.773 372.088 318.848 369.715 299C367.873 283.604 362.372 269.574 351.829 258.004C348.868 254.754 343.063 248.242 338.039 248.997C334.408 249.543 331.373 254.522 329 257z"/>
<path style="fill:#efefdf; stroke:none;" d="M226 270C228.575 266.755 230.238 264.011 234 262C228.242 260.029 226.159 265.108 226 270z"/>
<path style="fill:#2b591f; stroke:none;" d="M323 263C317.686 266.505 312.228 269.521 306 271C308.43 277.679 312.626 283.583 312.66 291C312.726 305.689 303.805 316.195 294 326C281.829 338.171 268.225 349.236 259 364C264.701 366.702 270.508 369.163 276 372.287C280.327 374.748 284.104 377.85 289 379C292.262 360.058 307.403 346.019 317.964 331C328.025 316.691 333.037 301.449 331.05 284C330.202 276.555 327.841 268.842 323 263M486 397C488.396 388.222 492.242 379.894 494.346 371C500.242 346.075 500.74 318.93 494.626 294C492.594 285.713 490.958 275.249 486.157 268.044C483.152 263.533 476.853 261.388 472.133 264.742C463.661 270.764 471.165 283.552 473.29 291C478.371 308.805 481.118 328.464 478.711 347C477.755 354.357 476.399 361.887 474.279 369C473.193 372.646 470.68 377.108 470.836 380.961C471.046 386.169 481.666 394.686 486 397M208 299C209.077 307.516 209.919 316.722 212.159 325C213.536 330.091 215.964 334.937 219.468 338.907C226.991 347.43 243.704 352.669 252.362 342.671C260.667 333.08 254.946 316.604 245.985 309.761C241.5 306.335 236.383 303.859 231 302.205C223.47 299.893 215.841 299.001 208 299z"/>
<path style="fill:#efefdf; stroke:none;" d="M222 318C228.447 327.153 238.288 336.976 247 344C241.833 333.076 233.617 322.404 222 318z"/>
<path style="fill:#2b591f; stroke:none;" d="M215 382C244.311 387.684 275.29 401.859 293 427C271.783 413.787 252.363 401.603 228 394.71C221.249 392.8 208.887 388.405 202 390.643C197.83 391.997 194.609 396.419 191.424 399.255C183.301 406.488 175.663 414.401 167 421C171.537 422.396 177.303 420.577 182 420.05C191.038 419.035 199.903 418.985 209 419C231.619 419.036 255.5 424.922 276 434.309C287.254 439.462 298.137 445.739 308 453.235C311.411 455.828 317.318 462.598 322 461.828C327.51 460.922 333.451 453.477 338 450.347C349.352 442.537 361.266 436.25 374 431.011C399.967 420.328 428.19 417.822 456 419.039C462.029 419.303 467.968 420.741 474 421C467.955 413.095 459.057 407.052 452 400C448.572 396.574 444.897 391.719 440 390.438C432.052 388.358 420.634 392.541 413 394.71C388.64 401.632 369.237 413.775 348 427C367.843 405.457 396.991 382.661 428 382C424.664 377.278 420.194 373.946 416.039 369.98C414.227 368.25 412.438 365.897 409.83 365.411C403.2 364.175 391.819 370.895 386 373.756C364.061 384.542 346.091 398.757 333.453 420C329.915 425.947 327.153 432.477 324.865 439C323.386 443.217 322.992 447.575 320 451C319.677 443.927 316.679 437.465 313.988 431C303.859 406.66 283.353 387.436 260 375.759C253.882 372.7 247.445 369.983 241 367.692C238.603 366.84 235.602 365.403 233 365.929C227.012 367.139 218.632 377.251 215 382M150 433C153.495 436.938 158.842 441.97 164 443.485C167.615 444.547 171.363 443.34 175 443.09C181.977 442.609 188.995 441.843 196 442.015C221.084 442.629 247.102 446.881 271 454.67C279.18 457.336 287.299 460.398 295 464.248C301.577 467.537 306.411 471.374 314 471C306.196 459.951 292.734 452.875 281 446.703C252.852 431.898 219.448 427.662 188 429.039C175.265 429.597 162.695 431.998 150 433M328 471C335.406 471.762 339.549 468.386 346 465.32C353.826 461.601 361.858 458.518 370 455.586C393.835 447.004 420.724 442.634 446 442.015C453.349 441.835 460.682 442.586 468 443.09C470.963 443.293 474.043 444.275 477 443.552C482.19 442.285 487.725 437.023 491 433C449.103 425.217 401.753 426.424 363 445.753C350.942 451.767 335.93 459.835 328 471M199 455C203.455 460.821 210.073 465.165 216 469.421C227.576 477.73 239.752 484.884 253 490.2C301.002 509.46 351.871 507.701 399 486.86C415.172 479.709 434.755 468.935 446 455C417.288 455 391.039 458.13 364 468.424C355.98 471.478 348.248 475.08 341 479.695C334.775 483.658 328.758 488.969 321 488.969C312.906 488.969 307.406 483.341 301 479.24C294.146 474.852 286.551 471.446 279 468.45C253.186 458.208 226.519 455 199 455z"/>
</svg>
